<?xml version="1.0" encoding="UTF-8"?>
<svg width="33px" height="40px" viewBox="0 0 33 40" version="1.1" xmlns="http://www.w3.org/2000/svg" xmlns:xlink="http://www.w3.org/1999/xlink">
    <title>logo</title>
    <g id="Page-1" stroke="none" stroke-width="1" fill="none" fill-rule="evenodd">
        <g id="website6" transform="translate(-633.000000, -1632.000000)" fill="#000000" fill-rule="nonzero">
            <g id="Group-12" transform="translate(87.000000, 1329.000000)">
                <g id="Apple-Store-Dark" transform="translate(529.000000, 292.000000)">
                    <path d="M47.1932939,46.0339483 C45.5025168,48.472386 43.7535634,50.8958247 40.9922186,50.9466213 C38.2746078,50.997418 37.4033857,49.359127 34.3023395,49.359127 C31.1980387,49.359127 30.2269403,50.8958247 27.661056,50.997418 C24.9952547,51.0958114 22.968214,48.3637932 21.2635032,45.9363548 C17.780832,40.9730851 15.1227198,31.9026888 18.6975985,25.7814562 C20.4678697,22.7415185 23.6399887,20.8181266 27.0774613,20.7673499 C29.6954196,20.7198331 32.1685268,22.5080141 33.7675641,22.5080141 C35.3690424,22.5080141 38.3708226,20.361097 41.5265871,20.675996 C42.8475575,20.7298124 46.5549808,21.2009411 48.9359415,24.6369124 C48.7477835,24.7588843 44.5106702,27.1900025 44.5623374,32.2548654 C44.614208,38.3050627 49.9381621,40.3161289 50,40.343527 C49.9517909,40.4857176 49.1489159,43.214536 47.1932939,46.0339483 Z M35.599307,14.0297384 C37.0608365,12.3407108 39.5302823,11.0844144 41.568287,11 C41.8286569,13.3461439 40.8715941,15.6955275 39.4580703,17.3884548 C38.0416987,19.0783423 35.7231862,20.3947347 33.4477973,20.2189664 C33.1386081,17.9235992 34.2854561,15.5297185 35.599307,14.0297384 Z" id="logo"></path>
                </g>
            </g>
        </g>
    </g>
</svg>