<?xml version="1.0" encoding="UTF-8"?>
<svg width="483px" height="107px" viewBox="0 0 483 107" version="1.1" xmlns="http://www.w3.org/2000/svg" xmlns:xlink="http://www.w3.org/1999/xlink">
    <title>logotype</title>
    <defs>
        <linearGradient x1="94.9646289%" y1="23.6258929%" x2="1.11022302e-14%" y2="75.2260083%" id="linearGradient-1">
            <stop stop-color="#2CE2CC" offset="0%"></stop>
            <stop stop-color="#3370F6" offset="100%"></stop>
        </linearGradient>
    </defs>
    <g id="Page-1" stroke="none" stroke-width="1" fill="none" fill-rule="evenodd">
        <g id="website6" transform="translate(-210.000000, -302.000000)">
            <g id="hero" transform="translate(122.000000, 209.000000)">
                <g id="logotype" transform="translate(88.000000, 93.000000)">
                    <path d="M27.2962135,0 L26.0645361,0.00564570917 C25.864821,0.00754109523 25.6678388,0.00992044008 25.4735151,0.012793856 L24.3388811,0.0360441018 L23.2644876,0.0716374409 L22.2467705,0.120059262 C22.081676,0.129225571 21.9187946,0.138946626 21.7580519,0.149232537 L20.8186668,0.217807184 C16.5490962,0.570209236 13.8398882,1.38131508 11.0610648,2.87310905 C7.52983163,4.76882952 4.75072671,7.55852431 2.86220253,11.1032134 C1.37607152,13.8926256 0.568044682,16.6121571 0.216980373,20.897997 L0.14866604,21.8409616 L0.0938568098,22.8354522 C0.0858204997,23.0056932 0.0783267545,23.1782302 0.0713655002,23.3531377 L0.0359072759,24.4316252 L0.0127452896,25.5705828 L0.00139599554,26.7735881 L0,79.5997733 L0.00562427767,80.8361441 C0.00751246872,81.0366202 0.00988278141,81.234353 0.0127452896,81.4294172 L0.0359072759,82.5683748 L0.0713655002,83.6468623 L0.119603509,84.6684574 C0.128735022,84.834181 0.138419175,84.9976831 0.14866604,85.1590384 L0.216980373,86.102003 C0.568044682,90.3878429 1.37607152,93.1073744 2.86220253,95.8967866 C4.75072671,99.4414757 7.52983163,102.23117 11.0610648,104.126891 C13.8398882,105.618685 16.5490962,106.429791 20.8186668,106.782193 L21.7580519,106.850767 L22.7487672,106.905786 C22.918362,106.913852 23.090244,106.921375 23.2644876,106.928363 L24.3388811,106.963956 L25.4735151,106.987206 L26.6719537,106.998599 C26.8772085,107 27.0852704,107 27.2962135,107 L79.2976071,107 L80.5292846,106.994354 C80.7289996,106.992459 80.9259818,106.99008 81.1203056,106.987206 L82.2549396,106.963956 L83.3293331,106.928363 L84.3470501,106.879941 C84.5121446,106.870774 84.6750261,106.861053 84.8357688,106.850767 L85.7751539,106.782193 C90.0447244,106.429791 92.7539324,105.618685 95.5327558,104.126891 C99.063989,102.23117 101.843094,99.4414757 103.731618,95.8967866 C105.217749,93.1073744 106.025776,90.3878429 106.37684,86.102003 L106.445155,85.1590384 L106.499964,84.1645478 C106.508,83.9943068 106.515494,83.8217698 106.522455,83.6468623 L106.557913,82.5683748 L106.581075,81.4294172 L106.592425,80.2264119 C106.593821,80.0203749 106.593821,79.8115203 106.593821,79.5997733 L106.593821,27.4002267 L106.588196,26.1638559 C106.586308,25.9633798 106.583938,25.765647 106.581075,25.5705828 L106.557913,24.4316252 L106.522455,23.3531377 L106.474217,22.3315426 C106.465086,22.165819 106.455401,22.0023169 106.445155,21.8409616 L106.37684,20.897997 C106.025776,16.6121571 105.217749,13.8926256 103.731618,11.1032134 C101.843094,7.55852431 99.063989,4.76882952 95.5327558,2.87310905 C92.7539324,1.38131508 90.0447244,0.570209236 85.7751539,0.217807184 L84.8357688,0.149232537 L83.8450534,0.0942144544 C83.6754587,0.0861475216 83.5035766,0.0786252212 83.3293331,0.0716374409 L82.2549396,0.0360441018 L81.1203056,0.012793856 L79.9218669,0.00140131503 L27.2962135,0 Z" id="Rectangle" fill="#131415" fill-rule="nonzero"></path>
                    <path d="M57.9739683,73.7065861 C58.8817602,73.7065861 59.6176709,74.4411119 59.6176709,75.3471955 C59.6176709,76.2230762 58.9300032,76.9386459 58.0641536,76.9853773 L57.9739683,76.9878049 L23.9036657,76.9878049 C22.9958738,76.9878049 22.2599631,76.253279 22.2599631,75.3471955 C22.2599631,74.4713147 22.9476308,73.7557451 23.8134804,73.7090137 L23.9036657,73.7065861 L57.9739683,73.7065861 Z M81.3588809,73.7065861 C82.2666728,73.7065861 83.0025835,74.4411119 83.0025835,75.3471955 C83.0025835,76.2230762 82.3149158,76.9386459 81.4490663,76.9853773 L81.3588809,76.9878049 L68.050169,76.9878049 C67.1423771,76.9878049 66.4064663,76.253279 66.4064663,75.3471955 C66.4064663,74.4713147 67.094134,73.7557451 67.9599836,73.7090137 L68.050169,73.7065861 L81.3588809,73.7065861 Z M39.7890817,62.7829883 C40.6968736,62.7829883 41.4327844,63.5175142 41.4327844,64.4235977 C41.4327844,65.2994785 40.7451167,66.0150481 39.8792671,66.0617796 L39.7890817,66.0642071 L23.9153179,66.0642071 C23.007526,66.0642071 22.2716152,65.3296813 22.2716152,64.4235977 C22.2716152,63.547717 22.9592829,62.8321474 23.8251325,62.7854159 L23.9153179,62.7829883 L39.7890817,62.7829883 Z M81.5514744,62.7829883 C82.4592664,62.7829883 83.1951771,63.5175142 83.1951771,64.4235977 C83.1951771,65.2994785 82.5075094,66.0150481 81.6416598,66.0617796 L81.5514744,66.0642071 L49.6105658,66.0642071 C48.7027739,66.0642071 47.9668632,65.3296813 47.9668632,64.4235977 C47.9668632,63.547717 48.6545309,62.8321474 49.5203805,62.7854159 L49.6105658,62.7829883 L81.5514744,62.7829883 Z M65.4952536,51.8593906 C66.4030455,51.8593906 67.1389562,52.5939165 67.1389562,53.5 C67.1389562,54.3758808 66.4512885,55.0914504 65.5854389,55.1381818 L65.4952536,55.1406094 L23.9720723,55.1406094 C23.0642804,55.1406094 22.3283697,54.4060835 22.3283697,53.5 C22.3283697,52.6241192 23.0160374,51.9085496 23.881887,51.8618182 L23.9720723,51.8593906 L65.4952536,51.8593906 Z M81.5007919,51.8593906 C82.4085838,51.8593906 83.1444946,52.5939165 83.1444946,53.5 C83.1444946,54.3758808 82.4568269,55.0914504 81.5909773,55.1381818 L81.5007919,55.1406094 L75.6449587,55.1406094 C74.7371668,55.1406094 74.001256,54.4060835 74.001256,53.5 C74.001256,52.6241192 74.6889237,51.9085496 75.5547733,51.8618182 L75.6449587,51.8593906 L81.5007919,51.8593906 Z M40.2452244,40.9357929 C41.1530163,40.9357929 41.888927,41.6703187 41.888927,42.5764023 C41.888927,43.452283 41.2012593,44.1678526 40.3354097,44.2145841 L40.2452244,44.2170117 L23.7424216,44.2170117 C22.8346297,44.2170117 22.0987189,43.4824858 22.0987189,42.5764023 C22.0987189,41.7005215 22.7863866,40.9849519 23.6522362,40.9382204 L23.7424216,40.9357929 L40.2452244,40.9357929 Z M81.2473794,40.9357929 C82.1551713,40.9357929 82.891082,41.6703187 82.891082,42.5764023 C82.891082,43.452283 82.2034143,44.1678526 81.3375647,44.2145841 L81.2473794,44.2170117 L49.4998517,44.2170117 C48.5920598,44.2170117 47.856149,43.4824858 47.856149,42.5764023 C47.856149,41.7005215 48.5438167,40.9849519 49.4096663,40.9382204 L49.4998517,40.9357929 L81.2473794,40.9357929 Z M55.8250296,30.0121951 C56.7328215,30.0121951 57.4687322,30.746721 57.4687322,31.6528045 C57.4687322,32.5286853 56.7810645,33.2442549 55.915215,33.2909863 L55.8250296,33.2934139 L23.884121,33.2934139 C22.9763291,33.2934139 22.2404183,32.5588881 22.2404183,31.6528045 C22.2404183,30.7769238 22.928086,30.0613541 23.7939356,30.0146227 L23.884121,30.0121951 L55.8250296,30.0121951 Z M81.3386079,30.0121951 C82.2463998,30.0121951 82.9823105,30.746721 82.9823105,31.6528045 C82.9823105,32.5286853 82.2946428,33.2442549 81.4287932,33.2909863 L81.3386079,33.2934139 L66.965199,33.2934139 C66.0574071,33.2934139 65.3214964,32.5588881 65.3214964,31.6528045 C65.3214964,30.7769238 66.0091641,30.0613541 66.8750136,30.0146227 L66.965199,30.0121951 L81.3386079,30.0121951 Z" id="Combined-Shape" fill="url(#linearGradient-1)"></path>
                    <path d="M167.430294,87.4920732 C185.356255,87.4920732 195.27468,78.8146341 196.093632,60.455 L196.093632,58.8108537 L178.349661,58.8108537 L178.349661,59.9982927 C177.894687,67.7623171 174.800867,71.9640244 167.885268,71.9640244 C160.514695,71.9640244 156.783911,66.6662195 156.783911,56.3446341 L156.783911,50.6814634 C156.783911,39.6291463 160.241711,34.3313415 167.885268,34.3313415 C174.891861,34.3313415 177.803693,38.2590244 178.258666,45.8403659 L178.258666,46.845122 L195.820648,46.845122 L195.820648,44.8356098 C195.001696,27.6634146 184.901281,19.3513415 167.885268,19.3513415 C150.505275,19.3513415 139.494913,29.2162195 139.494913,49.5853659 L139.494913,57.897439 C139.494913,77.992561 149.231349,87.4920732 167.430294,87.4920732 Z M227.304823,87.4920732 C244.502826,87.4920732 253.966277,77.5358537 253.966277,60.9117073 L253.966277,59.267561 C253.966277,42.1867073 243.956858,32.0478049 227.395818,32.0478049 C210.379804,32.0478049 200.734363,42.917439 200.734363,59.267561 L200.734363,60.9117073 C200.734363,78.5406098 210.197815,87.4920732 227.304823,87.4920732 Z M227.395818,73.1514634 C221.299171,73.1514634 217.204408,68.8584146 217.204408,60.7290244 L217.204408,59.267561 C217.204408,50.407439 221.299171,46.1143902 227.486812,46.1143902 C233.947438,46.1143902 237.496232,50.590122 237.496232,59.267561 L237.496232,60.7290244 C237.496232,69.0410976 233.492464,73.1514634 227.395818,73.1514634 Z M277.89789,86.1219512 L277.89789,15.7890244 L261.154861,15.7890244 L261.154861,86.1219512 L277.89789,86.1219512 Z M304.104371,87.1267073 C312.020912,87.1267073 317.207611,83.2903659 319.846458,77.1704878 L321.393369,86.1219512 L335.406556,86.1219512 L335.406556,33.1439024 L318.572532,33.1439024 L318.572532,60.7290244 C318.572532,67.7623171 316.388659,72.6947561 310.564996,72.6947561 C304.650339,72.6947561 303.194424,68.4017073 303.194424,61.9164634 L303.194424,33.1439024 L286.633384,33.1439024 L286.633384,66.8489024 C286.633384,79.7280488 292.366051,87.1267073 304.104371,87.1267073 Z M361.158063,86.1219512 L361.158063,58.080122 C361.158063,51.0468293 363.250942,46.3884146 368.98361,46.3884146 C374.807272,46.3884146 376.263188,50.7728049 376.263188,56.8926829 L376.263188,86.1219512 L392.824228,86.1219512 L392.824228,57.2580488 C392.824228,50.7728049 394.644122,46.3884146 400.37679,46.3884146 C406.200452,46.3884146 407.838357,50.590122 407.838357,57.0753659 L407.838357,86.1219512 L424.399397,86.1219512 L424.399397,52.1429268 C424.399397,39.355122 418.393745,32.0478049 406.74642,32.0478049 C399.011869,32.0478049 393.82517,35.7928049 391.004333,41.73 C388.547476,35.5187805 383.451771,32.0478049 375.35324,32.0478049 C367.982668,32.0478049 362.704974,35.7014634 359.884137,41.4559756 L358.428222,33.1439024 L344.506029,33.1439024 L344.506029,86.1219512 L361.158063,86.1219512 Z M449.87792,86.1219512 L449.87792,58.4454878 C449.87792,51.1381707 452.243783,46.3884146 458.522419,46.3884146 C464.619066,46.3884146 466.256971,50.590122 466.256971,57.1667073 L466.256971,86.1219512 L483,86.1219512 L483,52.4169512 C483,39.6291463 476.812359,32.0478049 465.074039,32.0478049 C456.975509,32.0478049 451.515825,35.9754878 448.694989,42.0953659 L447.148078,33.1439024 L433.043896,33.1439024 L433.043896,86.1219512 L449.87792,86.1219512 Z" id="Column" fill="#131415" fill-rule="nonzero"></path>
                </g>
            </g>
        </g>
    </g>
</svg>